<svg width="100%" height="100%" overflow="visible" style="display: block;" viewBox="0 0 125.768 27.2287" fill="none" xmlns="http://www.w3.org/2000/svg">
<path id="Vector" fill-rule="evenodd" clip-rule="evenodd" d="M125.573 21.4969C120.317 29.3942 111.994 27.1027 109.494 25.3085C108.43 25.9483 106.565 27.3506 104.077 27.1886C98.7794 26.844 96.8823 20.1343 96.8823 20.1343C96.9204 20.1611 95.3043 20.6285 94.4308 20.6202C94.4196 22.5878 92.5005 27.2882 87.3212 27.2281C81.5092 27.1609 80.3276 19.4867 80.3276 19.4867C80.3276 19.4867 79.7493 20.1985 77.5502 20.9075C77.6609 19.3958 77.58 26.998 70.6141 27.1097C65.1071 27.1982 63.6206 19.3684 63.6206 19.3684C63.6206 19.3684 62.6652 20.2479 60.8138 20.553C60.9315 19.0167 60.7402 27.1355 53.7735 27.1097C49.0654 27.0924 47.4566 22.2866 47.5817 21.6195C47.7414 20.7695 45.9906 27.2293 41.4174 27.1286C39.5303 27.0795 38.1233 25.8685 37.2405 24.254C36.0586 25.4525 34.3427 27.1286 32.4178 27.1286C28.9625 27.1286 27.4392 24.5673 27.6972 17.2515C27.7192 16.3838 27.6485 16.0425 26.6753 15.9127C26.0912 15.8264 25.4929 15.6628 24.86 15.5766C24.6571 16.1766 22.9364 26.9334 17.0195 27.1376C15.0345 27.2061 13.9491 25.6821 13.0578 24.551C11.6914 26.153 9.88767 27.1886 7.31814 27.1886C2.96555 27.1886 0 24.0701 0 20.2231C0 16.3761 2.96555 13.2578 7.31814 13.2578C8.08772 13.2578 8.30376 13.3556 9.00682 13.5374C7.56095 1.87006 10.9755 0.0466204 13.9625 0.0466204C16.8302 0.0466204 21.7293 5.94563 14.8358 20.9087C16.3663 25.3717 19.6658 25.1193 21.2513 15.9318C21.574 14.0643 20.7111 11.5441 22.0532 11.1924C24.5065 10.5496 24.7668 12.4782 25.9171 12.7996C27.1334 13.1392 27.8433 13.106 29.011 13.3221C31.0062 13.6675 31.7848 14.6174 31.5417 16.7332C31.2498 19.4103 30.7391 23.3068 32.2961 23.7817C33.419 24.1267 35.469 22.0629 35.8287 20.9337C36.1883 19.8045 36.2635 19.4181 36.2954 18.5899C36.344 16.8197 36.4051 15.5222 36.7457 14.1835C36.8915 13.6655 37.0576 13.3224 37.7189 13.299C38.263 13.2867 39.258 13.1415 39.6961 13.4436C40.2799 13.8324 40.2069 14.2269 40.1399 15.2652C39.4609 30.0689 44.6869 22.6788 46.2451 16.7615C45.6902 10.0705 46.0712 0.169145 50.802 0.00308165C53.2624 -0.0832806 54.3502 1.66365 54.4698 2.96758C54.8082 6.65035 52.9126 12.7508 50.4196 16.8533C48.9948 25.2243 56.6492 26.8795 57.8733 20.1978C55.8706 19.3538 53.7063 15.938 55.4675 14.2733C56.4558 13.3391 60.5695 14.6812 60.6369 17.6084C62.6548 17.1301 62.9242 16.1203 62.9522 16.2876C62.3975 9.59658 62.912 0.169231 67.6432 0.00316714C70.1032 -0.0831951 71.1908 1.66374 71.3104 2.96767C71.6488 6.65042 69.7532 12.7509 67.2606 16.8535C65.8356 25.2243 73.4902 26.8796 74.7139 20.1979C73.2312 19.9443 70.1013 16.3111 71.9072 14.2734C72.8723 13.1845 76.971 15.449 77.4299 17.7053C79.3683 17.2191 79.6316 16.2414 79.6594 16.406C79.1046 9.71516 79.619 0.287811 84.3502 0.121748C86.8103 0.0353854 87.8979 1.78232 88.0175 3.08625C88.3559 6.769 86.4603 12.8696 83.9673 16.9721C82.5427 25.3431 90.1971 26.998 91.4212 20.3163C89.3836 20.0156 86.4878 16.1794 88.8185 14.2169C89.7496 13.4327 93.3077 15.4682 94.1406 17.7904C95.2978 17.7509 96.0182 17.3972 96.1726 17.3615C94.3251 9.50664 95.7004 0.0819546 100.79 0.00328231C103.541 -0.0391984 106.23 1.32133 105.05 8.79419C103.923 15.9242 99.8726 18.9163 99.882 18.9621C100.118 19.8163 102.196 26.9648 107.43 23.193C107.159 22.6493 106.887 22.0939 106.736 21.421C105.868 17.5013 107.572 13.074 112.203 12.3585C114.857 11.9485 117.356 13.0934 117.751 15.6746C118.401 19.8981 114.098 22.9569 112.462 23.6204C111.729 23.2514 119.106 27.4443 123.483 19.0416C123.737 18.5618 124.043 18.6025 124.44 18.8497C124.72 19.0244 126.315 20.3635 125.573 21.4969ZM10.4843 19.1853C10.2615 18.5951 9.8044 17.2946 9.64276 16.7311C8.75252 16.045 8.1171 15.9336 6.9744 15.9336C4.43497 15.9336 2.9403 18.0145 2.9403 20.2583C2.9403 22.502 4.56863 24.5832 7.10807 24.5832C9.30879 24.5832 10.9837 23.2571 11.4948 21.3797C11.1371 20.6479 10.7823 19.9753 10.4843 19.1853ZM13.9003 3.13504C12.1159 3.13504 11.5107 6.9076 11.6281 10.126C11.732 12.9714 12.6291 15.4764 13.0945 16.5989C13.2127 16.7395 13.1907 16.648 13.2962 16.7971C16.3944 10.7808 15.1093 3.13504 13.9003 3.13504ZM51.0569 3.25355C48.7507 3.01913 48.7656 11.5337 49.0519 13.4436C50.2496 11.7454 52.3303 3.7108 51.0569 3.25355ZM67.8975 3.25355C65.5913 3.01913 65.6062 11.5337 65.8927 13.4436C67.0903 11.7454 69.1711 3.7108 67.8975 3.25355ZM84.6047 3.37201C82.2984 3.1376 82.3133 11.6522 82.5997 13.5623C83.7973 11.8639 85.8781 3.82923 84.6047 3.37201ZM101.044 2.75512C97.4513 3.39461 98.2879 14.0125 98.8337 15.8748C103.066 10.7226 103.153 2.56159 101.044 2.75512ZM114.511 16.0239C114.328 15.3469 113.414 14.9851 112.784 15.0743C110.98 15.2926 109.23 17.2841 109.907 20.316C110.058 20.9912 110.435 21.6128 110.429 21.5921C114.467 19.1913 114.81 17.2995 114.511 16.0239ZM38.4262 10.9554C37.9105 10.9555 37.4065 10.82 36.9777 10.5662C36.5489 10.3123 36.2146 9.95151 36.0172 9.5293C35.8198 9.10711 35.7682 8.6425 35.8688 8.19427C35.9692 7.74602 36.2176 7.33429 36.5822 7.01111C36.9467 6.68793 37.4112 6.46784 37.917 6.37867C38.4227 6.28949 38.9469 6.33524 39.4234 6.51014C39.8998 6.68502 40.3069 6.9812 40.5933 7.3612C40.8798 7.7412 41.0327 8.18796 41.0327 8.64496C41.0327 8.94835 40.9653 9.24879 40.8343 9.52908C40.7034 9.80939 40.5114 10.0641 40.2693 10.2786C40.0272 10.4932 39.7399 10.6634 39.4237 10.7795C39.1075 10.8956 38.7685 10.9554 38.4262 10.9554Z" fill="var(--fill-0, #0D0C22)"/>
</svg>
