<svg width="100%" height="100%" overflow="visible" style="display: block;" viewBox="0 0 145.037 34.45" fill="none" xmlns="http://www.w3.org/2000/svg">
<g id="Vector">
<path d="M50.7008 28.7744V14.2194H50.9934L62.9473 28.7744H66.7091V7.40015H62.5294V21.9185H62.2368L50.2828 7.40015H46.5211V28.7744H50.7008ZM78.5376 29.1044C84.0548 29.1044 87.4404 25.9514 87.4404 20.672C87.4404 15.4293 84.0548 12.2396 78.5376 12.2396C73.0622 12.2396 69.6348 15.4293 69.6348 20.672C69.6766 25.9514 73.0204 29.1044 78.5376 29.1044ZM78.5376 26.0247C75.6118 26.0247 73.9399 24.0816 73.9399 20.672C73.9399 17.2991 75.6118 15.3193 78.5376 15.3193C81.4634 15.3193 83.1353 17.2991 83.1353 20.672C83.1353 24.0816 81.4634 26.0247 78.5376 26.0247ZM91.2439 8.61001V12.6796H88.3181V15.6126H91.2439V24.4483C91.2439 27.6012 92.9158 28.8478 97.1791 28.8478C97.9732 28.8478 98.7674 28.7744 99.3943 28.6645V25.8048C98.8928 25.8414 98.5584 25.8781 97.9732 25.8781C96.2177 25.8781 95.4236 25.1815 95.4236 23.5684V15.6126H99.3943V12.6796H95.4236V8.61001H91.2439ZM101.902 28.7744H106.082V12.5696H101.902V28.7744ZM103.992 9.8932C105.371 9.8932 106.5 8.90331 106.5 7.69345C106.5 6.44692 105.371 5.45703 103.992 5.45703C102.613 5.45703 101.484 6.44692 101.484 7.69345C101.484 8.90331 102.613 9.8932 103.992 9.8932ZM117.534 29.1044C123.051 29.1044 126.437 25.9514 126.437 20.672C126.437 15.4293 123.051 12.2396 117.534 12.2396C112.059 12.2396 108.631 15.4293 108.631 20.672C108.631 25.9514 111.975 29.1044 117.534 29.1044ZM117.534 26.0247C114.608 26.0247 112.937 24.0816 112.937 20.672C112.937 17.2991 114.608 15.3193 117.534 15.3193C120.418 15.3193 122.132 17.2991 122.132 20.672C122.09 24.0816 120.418 26.0247 117.534 26.0247ZM128.903 28.7744H133.083V19.3522C133.083 16.9691 134.671 15.4659 137.137 15.4659C139.687 15.4659 140.857 16.7124 140.857 19.1688V28.7744H145.037V18.2889C145.037 14.4027 142.78 12.2396 138.684 12.2396C135.925 12.2396 134.086 13.3395 133.208 15.1726H132.916V12.5696H128.861C128.903 12.5696 128.903 28.7744 128.903 28.7744Z" fill="black"/>
<path fill-rule="evenodd" clip-rule="evenodd" d="M6.4449 6.0321C7.66141 6.9019 8.10142 6.83323 10.3791 6.69589L31.8363 5.55142C32.3022 5.55142 31.9139 5.13941 31.7586 5.09363L28.1867 2.82758C27.5138 2.36979 26.582 1.82044 24.8478 1.95778L4.08954 3.30825C3.33893 3.37692 3.18363 3.72026 3.49422 3.97205L6.4449 6.0321ZM7.73906 10.4498V30.4094C7.73906 31.4852 8.33437 31.8743 9.70618 31.8056L33.2857 30.5925C34.6575 30.5238 34.8128 29.7913 34.8128 28.9215V9.09928C34.8128 8.22948 34.4246 7.7488 33.5963 7.81747L8.95557 9.09928C8.04966 9.16795 7.73906 9.57996 7.73906 10.4498ZM31.008 11.5256C31.1633 12.1207 31.008 12.7387 30.335 12.8074L29.1962 13.0134V27.7542C28.2126 28.212 27.3067 28.4866 26.5302 28.4866C25.3137 28.4866 25.0031 28.1433 24.0972 27.1362L16.6687 16.813V26.7928L19.0241 27.2506C19.0241 27.2506 19.0241 28.4638 17.1346 28.4638L11.9062 28.7384C11.7509 28.4638 11.9062 27.8 12.4239 27.6626L13.7957 27.3193V14.135L11.9062 13.9976C11.7509 13.4025 12.1392 12.5327 13.2004 12.464L18.817 12.1207L26.5561 22.5583V13.3338L24.589 13.1278C24.4337 12.3954 25.0549 11.846 25.8055 11.7773L31.008 11.5256ZM2.35537 1.4771L23.9678 0.0808408C26.6079 -0.125164 27.3067 0.0121729 28.9632 1.08798L35.8482 5.3683C36.987 6.10077 37.3753 6.30677 37.3753 7.1079V30.6154C37.3753 32.0803 36.7799 32.9501 34.6575 33.0874L9.57676 34.4379C7.97201 34.5066 7.2214 34.3006 6.39314 33.3621L1.29416 27.5253C0.388247 26.4495 0 25.6484 0 24.7099V3.81182C0 2.59868 0.621195 1.61443 2.35537 1.4771Z" fill="black"/>
</g>
</svg>
