<svg preserveAspectRatio="none" width="100%" height="100%" overflow="visible" viewBox="0 0 23 22.0919" fill="none" xmlns="http://www.w3.org/2000/svg">
<path d="M21.5 12.5459C22.3284 12.5459 23 11.8744 23 11.0459C23 10.2175 22.3284 9.54594 21.5 9.54594L21.5 11.0459L21.5 12.5459ZM0.43934 9.98528C-0.146447 10.5711 -0.146447 11.5208 0.43934 12.1066L9.98528 21.6525C10.5711 22.2383 11.5208 22.2383 12.1066 21.6525C12.6924 21.0668 12.6924 20.117 12.1066 19.5312L3.62132 11.0459L12.1066 2.56066C12.6924 1.97487 12.6924 1.02513 12.1066 0.43934C11.5208 -0.146447 10.5711 -0.146447 9.98528 0.439339L0.43934 9.98528ZM21.5 11.0459L21.5 9.54594L1.5 9.54594L1.5 11.0459L1.5 12.5459L21.5 12.5459L21.5 11.0459Z" fill="white" />
</svg>
