<svg preserveAspectRatio="none" width="100%" height="100%" overflow="visible" viewBox="0 0 23 22.0919" fill="none" xmlns="http://www.w3.org/2000/svg">
<path d="M1.5 12.5459C.6716 12.5459 0 11.8744 0 11.0459 0 10.2175.6716 9.5459 1.5 9.5459L1.5 11.0459 1.5 12.5459ZM22.5607 9.9853C23.1464 10.5711 23.1464 11.5208 22.5607 12.1066L13.0147 21.6525C12.4289 22.2383 11.4792 22.2383 10.8934 21.6525 10.3076 21.0668 10.3076 20.117 10.8934 19.5312L19.3787 11.0459 10.8934 2.5607C10.3076 1.9749 10.3076 1.0251 10.8934.4393 11.4792-.1464 12.4289-.1464 13.0147.4393L22.5607 9.9853ZM1.5 11.0459 1.5 9.5459 21.5 9.5459 21.5 11.0459 21.5 12.5459 1.5 12.5459 1.5 11.0459Z" fill="white" />
</svg>
