<svg preserveAspectRatio="none" width="100%" height="100%" overflow="visible" style="display: block;" viewBox="0 0 606 266" fill="none" xmlns="http://www.w3.org/2000/svg">
<g id="Bubble">
<mask id="path-1-inside-1_0_14" fill="white">
<path fill-rule="evenodd" clip-rule="evenodd" d="M45 0C20.1472 0 0 20.1472 0 45V192.952C0 217.805 20.1676 237.952 45.0204 237.952H56.3613L83 266L109.639 237.952H560.979C585.832 237.952 606 217.805 606 192.952V45C606 20.1472 585.853 0 561 0H45Z"/>
</mask>
<path fill-rule="evenodd" clip-rule="evenodd" d="M45 0C20.1472 0 0 20.1472 0 45V192.952C0 217.805 20.1676 237.952 45.0204 237.952H56.3613L83 266L109.639 237.952H560.979C585.832 237.952 606 217.805 606 192.952V45C606 20.1472 585.853 0 561 0H45Z" fill="var(--fill-0, #191A23)"/>
<path d="M56.3613 237.952L57.0864 237.264L56.7907 236.952H56.3613V237.952ZM83 266L82.2749 266.689L83 267.452L83.7251 266.689L83 266ZM109.639 237.952V236.952H109.209L108.914 237.264L109.639 237.952ZM0 45H1C1 20.6995 20.6995 1 45 1V0V-1C19.5949 -1 -1 19.595 -1 45H0ZM0 192.952H1V45H0H-1V192.952H0ZM45.0204 237.952V236.952C20.7193 236.952 1 217.252 1 192.952H0H-1C-1 218.358 19.6159 238.952 45.0204 238.952V237.952ZM56.3613 237.952V236.952H45.0204V237.952V238.952H56.3613V237.952ZM83 266L83.7251 265.311L57.0864 237.264L56.3613 237.952L55.6362 238.641L82.2749 266.689L83 266ZM109.639 237.952L108.914 237.264L82.2749 265.311L83 266L83.7251 266.689L110.364 238.641L109.639 237.952ZM560.979 237.952V236.952H109.639V237.952V238.952H560.979V237.952ZM606 192.952H605C605 217.252 585.281 236.952 560.979 236.952V237.952V238.952C586.384 238.952 607 218.358 607 192.952H606ZM606 45H605V192.952H606H607V45H606ZM561 0V1C585.3 1 605 20.6995 605 45H606H607C607 19.5949 586.405 -1 561 -1V0ZM45 0V1H561V0V-1H45V0Z" fill="var(--stroke-0, #B9FF66)" mask="url(#path-1-inside-1_0_14)"/>
</g>
</svg>
