<svg preserveAspectRatio="none" width="100%" height="100%" overflow="visible" style="display: block;" viewBox="0 0 30 30" fill="none" xmlns="http://www.w3.org/2000/svg">
<g id="Social icon">
<circle id="Ellipse 3" cx="15" cy="15" r="15" fill="var(--fill-0, white)"/>
<g id="linkedin">
<path d="M8.22155 22.0588H11.3057V12.0744H8.22155V22.0588Z" fill="var(--fill-0, black)"/>
<path d="M7.94118 8.88695C7.94118 9.87132 8.73557 10.6682 9.76361 10.6682C10.7449 10.6682 11.5393 9.87132 11.5393 8.88695C11.5393 7.90257 10.7449 7.05882 9.76361 7.05882C8.73557 7.05882 7.94118 7.90257 7.94118 8.88695Z" fill="var(--fill-0, black)"/>
<path d="M19.8103 22.0588H22.9412V16.5744C22.9412 13.9026 22.3337 11.7932 19.2029 11.7932C17.7075 11.7932 16.6795 12.6369 16.2589 13.4338H16.2122V12.0744H13.2683V22.0588H16.3524V17.1369C16.3524 15.8244 16.586 14.5588 18.2215 14.5588C19.8103 14.5588 19.8103 16.0588 19.8103 17.1838V22.0588Z" fill="var(--fill-0, black)"/>
</g>
</g>
</svg>
